<svg width="15" height="18" viewBox="0 0 15 18" fill="none" xmlns="http://www.w3.org/2000/svg">
<path d="M5.29412 14.4C4.80882 14.4 4.39338 14.2238 4.04779 13.8713C3.70221 13.5188 3.52941 13.095 3.52941 12.6V1.8C3.52941 1.305 3.70221 0.88125 4.04779 0.52875C4.39338 0.17625 4.80882 0 5.29412 0H13.2353C13.7206 0 14.136 0.17625 14.4816 0.52875C14.8272 0.88125 15 1.305 15 1.8V12.6C15 13.095 14.8272 13.5188 14.4816 13.8713C14.136 14.2238 13.7206 14.4 13.2353 14.4H5.29412ZM5.29412 12.6H13.2353V1.8H5.29412V12.6ZM1.76471 18C1.27941 18 0.863971 17.8238 0.518382 17.4713C0.172794 17.1188 0 16.695 0 16.2V3.6H1.76471V16.2H11.4706V18H1.76471Z" fill="#6A6968"/>
</svg>
